<?xml version="1.0" encoding="UTF-8"?>
<svg width="123px" height="123px" viewBox="0 0 123 123" version="1.1" xmlns="http://www.w3.org/2000/svg" xmlns:xlink="http://www.w3.org/1999/xlink">
    <!-- Generator: Sketch 59.1 (86144) - https://sketch.com -->
    <title>call-icon</title>
    <desc>Created with Sketch.</desc>
    <g id="Page-1" stroke="none" stroke-width="1" fill="none" fill-rule="evenodd">
        <g id="call-icon" transform="translate(-1.000000, 0.000000)" fill="#2972D9" fill-rule="nonzero">
            <path d="M34.84,50.25 C38.97,57.7 43.73,64.85 49.91,71.37 C56.11,77.93 63.82,83.9 73.8,89 C74.54,89.36 75.24,89.36 75.87,89.11 C76.82,88.75 77.79,87.96 78.74,87.01 C79.48,86.27 80.4,85.09 81.36,83.8 C85.2,78.75 89.95,72.48 96.66,75.62 C96.81,75.69 96.92,75.77 97.07,75.83 L119.45,88.7 C119.52,88.74 119.6,88.81 119.66,88.85 C122.61,90.88 123.83,94.01 123.86,97.56 C123.86,101.17 122.53,105.23 120.58,108.66 C118,113.19 114.2,116.19 109.82,118.17 C105.65,120.09 101.01,121.12 96.55,121.78 C89.55,122.81 82.99,122.15 76.28,120.09 C69.72,118.06 63.11,114.71 55.89,110.25 L55.36,109.91 C52.05,107.84 48.47,105.63 44.96,103.02 C32.12,93.32 19.03,79.31 10.5,63.89 C3.35,50.95 -0.55,36.98 1.58,23.67 C2.76,16.37 5.89,9.73 11.35,5.35 C16.11,1.51 22.52,-0.59 30.82,0.15 C31.77,0.22 32.62,0.77 33.07,1.59 L47.42,25.85 C49.52,28.57 49.78,31.27 48.63,33.97 C47.68,36.18 45.76,38.22 43.14,40.12 C42.37,40.78 41.45,41.45 40.48,42.15 C37.27,44.48 33.62,47.17 34.87,50.33 L34.84,50.25 L34.84,50.25 L34.84,50.25 Z" id="Path"></path>
        </g>
    </g>
</svg>